<?xml-stylesheet type="text/css" href="style.css" ?>
<svg version="1.1" xmlns="http://www.w3.org/2000/svg" xmlns:xlink="http://www.w3.org/1999/xlink" x="0px" y="0px" width="24px" height="24px" viewBox="0 0 24 24" enable-background="new 0 0 24 24" xml:space="preserve">
<g id="ico-alert" class="ico-alert">
  <g class="background" >
  	<path d="M12,0C5.373,0,0,5.373,0,12c0,6.628,5.373,12,12,12s12-5.372,12-12C24,5.373,18.627,0,12,0z"/>
  </g>
  <g class="symbol" >
  	<path d="M10.363,6.34c0-0.032,0.014-0.053,0.016-0.084h-0.016c0-0.928,0.496-1.178,1.54-1.178
  		c1.016,0,1.535,0.25,1.535,1.178h-0.015c0.002,0.031,0.015,0.052,0.015,0.084v6.82c0,0.928-0.492,1.178-1.537,1.178
  		c-1.017,0-1.538-0.25-1.538-1.178V6.34z"/>
  	<path d="M11.912,20.025c-1.09,0-1.971-0.883-1.971-1.974c0-1.088,0.881-1.969,1.971-1.969
  		c1.09,0,1.971,0.881,1.971,1.969C13.883,19.144,13.002,20.025,11.912,20.025z"/>
  </g>
</g>

</svg>
